<svg width="30" height="30" viewBox="0 0 30 30" fill="none" xmlns="http://www.w3.org/2000/svg">
<mask id="mask0" mask-type="alpha" maskUnits="userSpaceOnUse" x="0" y="0" width="30" height="30">
<rect width="30" height="30" fill="#C4C4C4"/>
</mask>
<g mask="url(#mask0)">
<path d="M26.5469 7.01562C26.8984 7.01562 27.25 6.72266 27.25 6.3125V4.4375C27.25 4.08594 26.8984 3.73438 26.5469 3.73438H1.70312C1.29297 3.73438 1 4.08594 1 4.4375V6.3125C1 6.72266 1.29297 7.01562 1.70312 7.01562H26.5469ZM26.5469 16.3906C26.8984 16.3906 27.25 16.0977 27.25 15.6875V13.8125C27.25 13.4609 26.8984 13.1094 26.5469 13.1094H1.70312C1.29297 13.1094 1 13.4609 1 13.8125V15.6875C1 16.0977 1.29297 16.3906 1.70312 16.3906H26.5469ZM26.5469 25.7656C26.8984 25.7656 27.25 25.4727 27.25 25.0625V23.1875C27.25 22.8359 26.8984 22.4844 26.5469 22.4844H1.70312C1.29297 22.4844 1 22.8359 1 23.1875V25.0625C1 25.4727 1.29297 25.7656 1.70312 25.7656H26.5469Z" fill="#333333"/>
</g>
</svg>
