<svg width="122" height="21" viewBox="0 0 122 21" fill="none" xmlns="http://www.w3.org/2000/svg">
<path d="M2.98973 1.659V8.697C2.98973 10.813 2.73673 11.963 2.43773 12.722C1.97773 13.872 1.10373 14.838 -0.000265615 14.792V20.45H2.20773V17H12.0977V20.45H14.3057V14.792H12.5577V1.659H2.98973ZM5.33573 3.867H10.2117V14.792H3.61073C4.04773 14.378 4.48473 13.826 4.80673 12.975C5.08273 12.239 5.33573 11.066 5.33573 8.697V3.867ZM26.8267 17H29.1727V1.015L18.8227 12.032V1.659H16.4767V17.69L26.8267 6.673V17ZM32.8507 1.659V17H35.1967V3.867H41.7747V17H44.1207V1.659H32.8507ZM49.2817 1.659V10.813C49.2817 12.147 49.3047 13.688 48.5227 14.447C48.2237 14.746 47.7407 14.976 47.1427 14.976C46.8207 14.976 46.5217 14.907 46.2917 14.838V17C46.5677 17.069 46.9127 17.138 47.3267 17.138C48.2927 17.138 49.3277 16.862 50.1097 16.218C51.5587 15.022 51.6277 13.251 51.6277 11.503V3.867H56.7337V17H59.0797V1.659H49.2817ZM70.0137 1.383C65.4137 1.383 62.0327 4.833 62.0327 9.341C62.0327 13.849 65.4137 17.299 70.0137 17.299C74.6137 17.299 77.9947 13.849 77.9947 9.341C77.9947 4.833 74.6137 1.383 70.0137 1.383ZM70.0137 15.137C66.7247 15.137 64.3787 12.745 64.3787 9.341C64.3787 5.937 66.7247 3.545 70.0137 3.545C73.3027 3.545 75.6487 5.937 75.6487 9.341C75.6487 12.745 73.3027 15.137 70.0137 15.137ZM82.1753 17L83.7853 7.731L88.2013 17.713L92.6633 7.754L94.2273 17H96.6193L93.7213 0.509L88.3393 12.423L83.0033 0.509L79.7833 17H82.1753ZM110.455 17H112.985L105.717 0.761999L98.0813 17H100.611L102.29 13.297H108.845L110.455 17ZM103.256 11.089L105.625 5.891L107.902 11.089H103.256ZM121.776 3.867V1.659H112.392V3.867H115.911V17H118.257V3.867H121.776Z" fill="#2F80ED"/>
</svg>
